<?xml version="1.0" standalone="no"?>
<!DOCTYPE svg PUBLIC "-//W3C//DTD SVG 20010904//EN"
 "http://www.w3.org/TR/2001/REC-SVG-20010904/DTD/svg10.dtd">
<svg version="1.0" xmlns="http://www.w3.org/2000/svg"
 width="700.000000pt" height="700.000000pt" viewBox="0 0 700.000000 700.000000"
 preserveAspectRatio="xMidYMid meet">
<metadata>
Created by potrace 1.11, written by Peter Selinger 2001-2013
</metadata>
<g transform="translate(0.000000,700.000000) scale(0.100000,-0.100000)"
fill="#000000" stroke="none">
<path d="M3005 6980 c-540 -80 -1018 -264 -1463 -562 -269 -180 -471 -360
-729 -652 -94 -105 -256 -336 -355 -506 -71 -120 -218 -422 -218 -446 0 -3 -7
-20 -14 -37 -37 -80 -127 -370 -152 -490 -20 -96 -56 -293 -62 -342 -9 -78 -9
-801 0 -885 4 -36 13 -92 18 -125 6 -33 13 -73 16 -90 20 -114 105 -435 133
-500 5 -11 28 -69 51 -130 298 -777 903 -1448 1655 -1836 72 -37 159 -79 195
-94 36 -15 79 -33 95 -41 88 -40 378 -134 475 -155 25 -5 56 -12 70 -15 14 -2
33 -7 42 -10 10 -3 30 -7 45 -10 16 -3 62 -11 103 -19 144 -26 218 -30 585
-30 328 0 456 5 536 20 13 3 64 12 113 20 338 58 769 214 1066 385 41 23 84
48 95 54 93 51 344 230 450 320 484 411 839 918 1051 1505 32 88 98 302 108
354 3 12 7 31 10 42 3 11 14 65 25 120 18 95 23 123 41 260 4 33 8 213 9 400
1 315 -8 474 -34 605 -3 14 -10 52 -16 85 -20 115 -99 409 -128 480 -5 11 -25
65 -46 120 -20 55 -77 181 -126 280 -216 442 -521 830 -894 1140 -33 28 -62
52 -65 55 -3 3 -23 18 -45 35 -22 16 -42 31 -45 34 -3 4 -12 11 -21 16 -9 6
-53 35 -97 66 -169 119 -396 244 -607 334 -110 47 -405 149 -458 159 -16 3
-43 9 -60 15 -18 6 -79 20 -137 31 -58 12 -112 23 -120 25 -8 1 -40 6 -70 10
-30 4 -64 10 -75 13 -11 3 -202 6 -425 8 -347 2 -422 0 -525 -16z"/>
</g>
</svg>
