<?xml version="1.0" encoding="UTF-8"?>
<!DOCTYPE svg PUBLIC "-//W3C//DTD SVG 1.1//EN" "http://www.w3.org/Graphics/SVG/1.1/DTD/svg11.dtd">
<svg xmlns="http://www.w3.org/2000/svg" xml:space="preserve" width="77mm" height="16mm" shape-rendering="geometricPrecision" text-rendering="geometricPrecision" image-rendering="optimizeQuality" fill-rule="evenodd" clip-rule="evenodd" viewBox="0 0 77 16" xmlns:xlink="http://www.w3.org/1999/xlink">
    <g>
        <path fill="#94877A" fill-rule="nonzero" d="M75.9469 11.8013c0.036,0.0794 0.0554,0.1441 0.053,0.1971 -0.0024,0.0505 -0.0385,0.0937 -0.1035,0.125 -0.0649,0.0337 -0.1658,0.0552 -0.3029,0.0674 -0.1346,0.012 -0.3173,0.0191 -0.541,0.0191 -0.2115,0 -0.3822,-0.0048 -0.512,-0.0119 -0.1298,-0.0072 -0.2308,-0.0217 -0.303,-0.0409 -0.0721,-0.0217 -0.1273,-0.048 -0.161,-0.0793 -0.0361,-0.0289 -0.0624,-0.0674 -0.0817,-0.1154l-1.1613 -2.2335 -1.1634 2.2335c-0.0168,0.048 -0.0433,0.0865 -0.0769,0.1154 -0.0337,0.0313 -0.0841,0.0576 -0.1515,0.0793 -0.0672,0.0192 -0.1635,0.0337 -0.286,0.0409 -0.1202,0.0071 -0.2813,0.0119 -0.4784,0.0119 -0.2069,0 -0.3703,-0.0071 -0.4929,-0.0191 -0.1226,-0.0122 -0.2115,-0.0337 -0.2669,-0.0674 -0.0576,-0.0313 -0.0865,-0.0745 -0.0889,-0.125 -0.0024,-0.053 0.0192,-0.1177 0.06,-0.1971l1.7406 -3.0918 -1.6059 -2.9042c-0.0432,-0.0841 -0.0649,-0.1539 -0.0673,-0.2139 -0.0024,-0.0578 0.0265,-0.1034 0.0889,-0.1371 0.0602,-0.0337 0.1562,-0.0552 0.291,-0.0696 0.1345,-0.0145 0.3173,-0.0217 0.5457,-0.0217 0.2067,0 0.3727,0.0024 0.4977,0.0096 0.125,0.0072 0.221,0.0193 0.2908,0.0313 0.0722,0.0143 0.1226,0.0384 0.1563,0.0673 0.0313,0.0313 0.0601,0.0698 0.0841,0.1178l1.1202 2.0988 1.1131 -2.0988c0.0144,-0.0384 0.0337,-0.0721 0.0624,-0.0986 0.0289,-0.0287 0.0722,-0.0528 0.1348,-0.0722 0.06,-0.0167 0.1443,-0.0311 0.2499,-0.0408 0.1059,-0.0096 0.2501,-0.0144 0.4327,-0.0144 0.2069,0 0.3728,0.0048 0.4953,0.0144 0.125,0.0097 0.2141,0.0289 0.2693,0.0626 0.053,0.0336 0.0793,0.0793 0.0769,0.1371 -0.0023,0.06 -0.0288,0.1345 -0.0817,0.2282l-1.5626 2.8538 1.7261 3.1422zm-7.2291 0.125c0,0.048 -0.0119,0.0889 -0.0408,0.125 -0.0288,0.0337 -0.077,0.0649 -0.1442,0.0865 -0.0697,0.0241 -0.1586,0.0408 -0.2716,0.053 -0.113,0.012 -0.2549,0.0191 -0.4304,0.0191 -0.1731,0 -0.3174,-0.0071 -0.4279,-0.0191 -0.113,-0.0122 -0.2045,-0.0289 -0.2717,-0.053 -0.0697,-0.0216 -0.1178,-0.0528 -0.1443,-0.0865 -0.0288,-0.0361 -0.0432,-0.077 -0.0432,-0.125l0 -6.2675c0,-0.0482 0.0144,-0.0891 0.0432,-0.1228 0.0265,-0.0359 0.0746,-0.0672 0.1443,-0.0913 0.0672,-0.0265 0.1587,-0.0456 0.2717,-0.06 0.1105,-0.0145 0.2548,-0.0217 0.4279,-0.0217 0.1755,0 0.3174,0.0072 0.4304,0.0217 0.113,0.0144 0.2019,0.0335 0.2716,0.06 0.0672,0.0241 0.1154,0.0554 0.1442,0.0913 0.0289,0.0337 0.0408,0.0746 0.0408,0.1228l0 6.2675zm-3.5147 0c0,0.048 -0.0144,0.0889 -0.0409,0.125 -0.0289,0.0337 -0.0769,0.0649 -0.1419,0.0865 -0.0648,0.0241 -0.1563,0.0408 -0.2717,0.053 -0.1154,0.012 -0.2571,0.0191 -0.4253,0.0191 -0.1732,0 -0.3175,-0.0071 -0.4329,-0.0191 -0.1154,-0.0122 -0.2067,-0.0289 -0.2717,-0.053 -0.0648,-0.0216 -0.113,-0.0528 -0.1417,-0.0865 -0.0265,-0.0361 -0.0409,-0.077 -0.0409,-0.125l0 -3.5845c0,-0.3054 -0.0217,-0.5433 -0.0673,-0.7189 -0.0457,-0.1731 -0.1083,-0.3221 -0.1948,-0.4471 -0.0841,-0.1228 -0.1923,-0.2189 -0.3269,-0.2886 -0.1323,-0.0674 -0.2886,-0.1009 -0.4689,-0.1009 -0.2235,0 -0.4519,0.0817 -0.6827,0.2452 -0.2284,0.1658 -0.4688,0.4038 -0.7189,0.7187l0 4.1761c0,0.048 -0.012,0.0889 -0.0409,0.125 -0.0287,0.0337 -0.0769,0.0649 -0.1441,0.0865 -0.0698,0.0241 -0.1587,0.0408 -0.2717,0.053 -0.113,0.012 -0.2549,0.0191 -0.4303,0.0191 -0.1732,0 -0.3175,-0.0071 -0.4279,-0.0191 -0.1131,-0.0122 -0.2045,-0.0289 -0.2717,-0.053 -0.0698,-0.0216 -0.1178,-0.0528 -0.1443,-0.0865 -0.0289,-0.0361 -0.0433,-0.077 -0.0433,-0.125l0 -6.282c0,-0.0457 0.012,-0.0889 0.0361,-0.1226 0.0239,-0.0361 0.0648,-0.065 0.1274,-0.0889 0.0602,-0.0241 0.1395,-0.0409 0.2356,-0.053 0.0962,-0.012 0.2164,-0.0168 0.3629,-0.0168 0.1491,0 0.2741,0.0048 0.3727,0.0168 0.0987,0.0121 0.1756,0.0289 0.2285,0.053 0.0552,0.0239 0.0936,0.0528 0.1154,0.0889 0.0239,0.0337 0.036,0.0769 0.036,0.1226l0 0.7261c0.3486,-0.3751 0.702,-0.6588 1.0602,-0.8463 0.3582,-0.1876 0.7333,-0.2813 1.1228,-0.2813 0.4279,0 0.7885,0.0698 1.0818,0.2115 0.2933,0.1419 0.5312,0.3319 0.7116,0.5746 0.1804,0.2404 0.3101,0.5242 0.3895,0.8487 0.0817,0.3245 0.1202,0.714 0.1202,1.1684l0 3.8803zm-9.179 -3.8298c0.0144,-0.4976 -0.0841,-0.8896 -0.2981,-1.1732 -0.2139,-0.2837 -0.5434,-0.4256 -0.9904,-0.4256 -0.2261,0 -0.4208,0.0409 -0.5866,0.125 -0.1684,0.0843 -0.3054,0.1997 -0.416,0.3414 -0.1106,0.1443 -0.1947,0.3126 -0.2549,0.5073 -0.0576,0.1947 -0.0913,0.404 -0.1009,0.6251l2.6469 0zm1.7189 0.5072c0,0.2141 -0.048,0.3751 -0.1442,0.4786 -0.0961,0.1032 -0.2285,0.1538 -0.3967,0.1538l-3.8249 0c0,0.2693 0.0313,0.5121 0.0937,0.7283 0.065,0.2189 0.1658,0.404 0.303,0.5579 0.1395,0.1515 0.3173,0.2693 0.5361,0.3486 0.2187,0.0793 0.4808,0.1202 0.7861,0.1202 0.3102,0 0.5818,-0.0241 0.815,-0.0674 0.2356,-0.0456 0.4399,-0.0936 0.6107,-0.149 0.1706,-0.0529 0.3126,-0.1033 0.4256,-0.1467 0.113,-0.0457 0.2043,-0.0672 0.274,-0.0672 0.0433,0 0.0794,0.0072 0.1057,0.0239 0.0289,0.0169 0.053,0.0457 0.0721,0.0891 0.017,0.0409 0.0313,0.1009 0.0385,0.1802 0.0072,0.0769 0.0096,0.1732 0.0096,0.291 0,0.1032 -0.0024,0.1923 -0.0072,0.2645 -0.0048,0.0719 -0.012,0.1345 -0.0215,0.1873 -0.0072,0.0507 -0.0218,0.0939 -0.0409,0.13 -0.0193,0.0361 -0.0433,0.0696 -0.0746,0.1009 -0.0312,0.0336 -0.113,0.0793 -0.2501,0.1347 -0.1369,0.0552 -0.3101,0.1106 -0.5216,0.1658 -0.2117,0.0528 -0.452,0.1011 -0.7237,0.1395 -0.2741,0.0409 -0.5649,0.06 -0.875,0.06 -0.5579,0 -1.0482,-0.0697 -1.469,-0.2115 -0.4183,-0.1395 -0.7693,-0.3533 -1.053,-0.6395 -0.2812,-0.2861 -0.4905,-0.649 -0.6298,-1.0843 -0.1371,-0.4375 -0.2069,-0.9496 -0.2069,-1.5362 0,-0.5577 0.0722,-1.0625 0.2188,-1.5098 0.1443,-0.4496 0.3558,-0.8294 0.6323,-1.1419 0.2788,-0.3125 0.6155,-0.5507 1.0121,-0.7141 0.3968,-0.1659 0.8439,-0.2476 1.3416,-0.2476 0.5264,0 0.9761,0.077 1.3488,0.2332 0.3725,0.1539 0.6803,0.3702 0.9182,0.6442 0.2404,0.2743 0.416,0.5988 0.529,0.9763 0.113,0.3749 0.1682,0.7837 0.1682,1.2236l0 0.2836z"/>
        <path fill="#94877A" fill-rule="nonzero" d="M49.0572 12.5826c0,-0.2116 -0.0843,-0.3727 -0.2525,-0.4857 -0.1707,-0.113 -0.4015,-0.1754 -0.6972,-0.1826l-1.2621 -0.036c-0.1226,0.0889 -0.2189,0.1754 -0.291,0.2571 -0.0746,0.0817 -0.1322,0.161 -0.1778,0.2356 -0.0433,0.0745 -0.0722,0.1467 -0.0867,0.2188 -0.0144,0.0698 -0.0215,0.1419 -0.0215,0.2189 0,0.2332 0.1178,0.411 0.3557,0.5336 0.238,0.1225 0.5723,0.1827 1.0026,0.1827 0.2693,0 0.4953,-0.0265 0.6779,-0.0793 0.1828,-0.0554 0.3294,-0.1274 0.4425,-0.2165 0.113,-0.0889 0.1923,-0.1873 0.2403,-0.298 0.0457,-0.1106 0.0698,-0.226 0.0698,-0.3486zm-0.416 -5.015c0,-0.339 -0.0937,-0.6011 -0.2812,-0.7886 -0.1876,-0.1874 -0.4521,-0.2813 -0.7959,-0.2813 -0.173,0 -0.3269,0.0289 -0.4568,0.0865 -0.1322,0.0602 -0.2404,0.1395 -0.3293,0.2406 -0.0865,0.1009 -0.1515,0.2187 -0.1923,0.351 -0.0433,0.1345 -0.065,0.274 -0.065,0.4206 0,0.3175 0.0963,0.5698 0.2838,0.7574 0.1876,0.1851 0.4471,0.2764 0.7813,0.2764 0.1778,0 0.3341,-0.0265 0.464,-0.0841 0.1322,-0.0554 0.2404,-0.1347 0.3269,-0.2332 0.0889,-0.0987 0.1539,-0.2117 0.1972,-0.3414 0.0456,-0.1274 0.0673,-0.2645 0.0673,-0.4039zm2.2765 -1.4858c0,0.2236 -0.0264,0.392 -0.0794,0.5 -0.0504,0.1083 -0.1128,0.1613 -0.1897,0.1613l-0.7381 0c0.1033,0.1128 0.1754,0.2403 0.2211,0.3845 0.0456,0.1419 0.0673,0.291 0.0673,0.4472 0,0.3654 -0.0626,0.6901 -0.1828,0.9761 -0.1225,0.2836 -0.2979,0.5216 -0.5262,0.7163 -0.226,0.1948 -0.5025,0.3439 -0.8222,0.4449 -0.3223,0.1009 -0.6804,0.1515 -1.0747,0.1515 -0.2019,0 -0.3942,-0.0241 -0.577,-0.0746 -0.1852,-0.048 -0.3245,-0.1058 -0.4231,-0.1732 -0.0577,0.0626 -0.1083,0.1348 -0.1515,0.2189 -0.0457,0.0841 -0.0672,0.178 -0.0672,0.2812 0,0.1371 0.06,0.2478 0.1802,0.3367 0.1178,0.0865 0.2862,0.1345 0.5025,0.1443l1.5291 0.0552c0.3558,0.0143 0.6755,0.0649 0.9542,0.1515 0.2788,0.0865 0.5144,0.209 0.7044,0.3653 0.1899,0.1587 0.3342,0.3462 0.4351,0.5675 0.101,0.2212 0.1515,0.4735 0.1515,0.7548 0,0.3101 -0.0672,0.6011 -0.2044,0.8776 -0.1345,0.274 -0.339,0.512 -0.6107,0.7139 -0.274,0.2019 -0.6153,0.3608 -1.0263,0.4786 -0.4112,0.1178 -0.8895,0.1754 -1.44,0.1754 -0.5338,0 -0.9906,-0.0409 -1.3703,-0.125 -0.3775,-0.0865 -0.6877,-0.2019 -0.9281,-0.3534 -0.2427,-0.1491 -0.4183,-0.3295 -0.5289,-0.5385 -0.1107,-0.2091 -0.1659,-0.4376 -0.1659,-0.6877 0,-0.1539 0.0192,-0.3029 0.06,-0.4423 0.0409,-0.1419 0.0987,-0.2764 0.1756,-0.4064 0.077,-0.1273 0.173,-0.2523 0.2861,-0.3677 0.113,-0.1178 0.2403,-0.2308 0.387,-0.339 -0.2019,-0.1083 -0.3582,-0.2548 -0.4688,-0.4399 -0.1106,-0.1852 -0.1658,-0.3895 -0.1658,-0.6107 0,-0.2765 0.065,-0.5288 0.1899,-0.7573 0.1274,-0.226 0.2932,-0.4327 0.4953,-0.6154 -0.166,-0.1635 -0.2981,-0.3606 -0.3968,-0.5914 -0.0985,-0.2308 -0.1465,-0.517 -0.1465,-0.8583 0,-0.3679 0.0648,-0.6948 0.1947,-0.9834 0.1274,-0.2884 0.3078,-0.5336 0.5384,-0.7333 0.2284,-0.1995 0.5049,-0.351 0.8224,-0.4566 0.3197,-0.1059 0.6731,-0.1587 1.0577,-0.1587 0.1972,0 0.3871,0.012 0.5673,0.0337 0.1804,0.0239 0.3486,0.0576 0.5025,0.0985l1.993 0c0.0793,0 0.1441,0.0528 0.1947,0.1562 0.048,0.1035 0.0744,0.2765 0.0744,0.5217z"/>
        <rect fill="#ffffff" height="8.373685" stroke="#000000" stroke-dasharray="null" stroke-linecap="null" stroke-linejoin="null" stroke-opacity="0" stroke-width="0" width="10.620526" x="2" y="3.84"/>
        <path fill="#0088CC" fill-rule="nonzero" d="M42.0755 8.0965c0.0144,-0.4976 -0.0841,-0.8896 -0.2981,-1.1732 -0.2139,-0.2837 -0.5434,-0.4256 -0.9904,-0.4256 -0.2261,0 -0.4208,0.0409 -0.5866,0.125 -0.1684,0.0843 -0.3054,0.1997 -0.416,0.3414 -0.1106,0.1443 -0.1947,0.3126 -0.2549,0.5073 -0.0576,0.1947 -0.0913,0.404 -0.1009,0.6251l2.6469 0zm1.719 0.5072c0,0.2141 -0.0481,0.3751 -0.1443,0.4786 -0.0961,0.1032 -0.2285,0.1538 -0.3967,0.1538l-3.8249 0c0,0.2693 0.0313,0.5121 0.0937,0.7283 0.065,0.2189 0.1658,0.404 0.303,0.5579 0.1395,0.1515 0.3173,0.2693 0.5361,0.3486 0.2187,0.0793 0.4808,0.1202 0.7861,0.1202 0.3102,0 0.5818,-0.0241 0.815,-0.0674 0.2356,-0.0456 0.4399,-0.0936 0.6107,-0.149 0.1707,-0.0529 0.3126,-0.1033 0.4256,-0.1467 0.113,-0.0457 0.2043,-0.0672 0.274,-0.0672 0.0433,0 0.0794,0.0072 0.1057,0.0239 0.0289,0.0169 0.053,0.0457 0.0721,0.0891 0.017,0.0409 0.0313,0.1009 0.0385,0.1802 0.0072,0.0769 0.0096,0.1732 0.0096,0.291 0,0.1032 -0.0024,0.1923 -0.0072,0.2645 -0.0048,0.0719 -0.012,0.1345 -0.0215,0.1873 -0.0072,0.0507 -0.0218,0.0939 -0.0409,0.13 -0.0193,0.0361 -0.0433,0.0696 -0.0745,0.1009 -0.0313,0.0336 -0.1131,0.0793 -0.2502,0.1347 -0.1369,0.0552 -0.3101,0.1106 -0.5216,0.1658 -0.2117,0.0528 -0.452,0.1011 -0.7237,0.1395 -0.2741,0.0409 -0.5649,0.06 -0.875,0.06 -0.5579,0 -1.0482,-0.0697 -1.469,-0.2115 -0.4183,-0.1395 -0.7693,-0.3533 -1.053,-0.6395 -0.2812,-0.2861 -0.4905,-0.649 -0.6298,-1.0843 -0.1371,-0.4375 -0.2069,-0.9496 -0.2069,-1.5362 0,-0.5577 0.0722,-1.0625 0.2189,-1.5098 0.1442,-0.4496 0.3557,-0.8294 0.6322,-1.1419 0.2788,-0.3125 0.6155,-0.5507 1.0121,-0.7141 0.3968,-0.1659 0.8439,-0.2476 1.3416,-0.2476 0.5264,0 0.9761,0.077 1.3488,0.2332 0.3725,0.1539 0.6803,0.3702 0.9182,0.6442 0.2404,0.2743 0.416,0.5988 0.529,0.9763 0.113,0.3749 0.1683,0.7837 0.1683,1.2236l0 0.2836zm-9.3472 -0.875c-0.2525,-0.3197 -0.4953,-0.5627 -0.7285,-0.7309 -0.2332,-0.1706 -0.476,-0.2547 -0.7285,-0.2547 -0.2308,0 -0.4279,0.0576 -0.5962,0.173 -0.1658,0.1154 -0.3005,0.2693 -0.4014,0.4616 -0.101,0.1923 -0.1756,0.4062 -0.226,0.6442 -0.0481,0.2382 -0.0722,0.4809 -0.0722,0.7285 0,0.2621 0.0217,0.5192 0.0626,0.767 0.0433,0.2499 0.1105,0.4712 0.2091,0.6659 0.0961,0.1947 0.2236,0.351 0.3823,0.4688 0.161,0.1178 0.3629,0.1756 0.6057,0.1756 0.1228,0 0.2406,-0.017 0.356,-0.053 0.1152,-0.0337 0.2332,-0.0913 0.3534,-0.1707 0.1178,-0.0817 0.2427,-0.1851 0.3677,-0.3149 0.1274,-0.1275 0.2669,-0.2862 0.416,-0.4761l0 -2.0843zm1.7622 4.1976c0,0.0528 -0.012,0.0961 -0.0361,0.1322 -0.024,0.0336 -0.0624,0.0625 -0.1202,0.0865 -0.0552,0.0241 -0.1322,0.0408 -0.2284,0.0506 -0.0961,0.0095 -0.2139,0.0143 -0.3558,0.0143 -0.1491,0 -0.2717,-0.0048 -0.3654,-0.0143 -0.0938,-0.0098 -0.1708,-0.0265 -0.2308,-0.0506 -0.0578,-0.024 -0.101,-0.0529 -0.125,-0.0865 -0.0265,-0.0361 -0.0384,-0.0794 -0.0384,-0.1322l0 -0.6972c-0.3247,0.3486 -0.6637,0.6179 -1.0195,0.8102 -0.3534,0.1923 -0.7476,0.2884 -1.178,0.2884 -0.4807,0 -0.8847,-0.0913 -1.2164,-0.2764 -0.3295,-0.1852 -0.6011,-0.4351 -0.8102,-0.7501 -0.2093,-0.3149 -0.3606,-0.6828 -0.4545,-1.1036 -0.0936,-0.4205 -0.1393,-0.863 -0.1393,-1.327 0,-0.5601 0.06,-1.0626 0.1778,-1.5074 0.1202,-0.4471 0.2958,-0.827 0.5266,-1.1419 0.2284,-0.3149 0.5168,-0.5553 0.8583,-0.7237 0.3438,-0.1707 0.738,-0.2548 1.1827,-0.2548 0.3534,0 0.6733,0.0722 0.9593,0.2139 0.286,0.1443 0.5698,0.3536 0.8511,0.6324l0 -3.4019c0,-0.048 0.0143,-0.0889 0.0385,-0.1274 0.0263,-0.0384 0.0745,-0.0697 0.1417,-0.0962 0.0673,-0.024 0.1586,-0.0457 0.2717,-0.06 0.113,-0.012 0.2549,-0.0194 0.4279,-0.0194 0.1756,0 0.3175,0.0074 0.4303,0.0194 0.113,0.0143 0.2021,0.036 0.2669,0.06 0.0674,0.0265 0.113,0.0578 0.1419,0.0962 0.0289,0.0385 0.0433,0.0794 0.0433,0.1274l0 9.2391zm-9.1862 -3.1326c0,-0.3102 -0.0239,-0.5962 -0.0745,-0.8559 -0.048,-0.2621 -0.1322,-0.488 -0.25,-0.6803 -0.1178,-0.1923 -0.2738,-0.3438 -0.4686,-0.4496 -0.1947,-0.1083 -0.4399,-0.1635 -0.7357,-0.1635 -0.262,0 -0.4929,0.0481 -0.69,0.1443 -0.1971,0.0961 -0.3582,0.238 -0.4855,0.4232 -0.1276,0.1849 -0.2213,0.4086 -0.2862,0.6683 -0.0624,0.2619 -0.0937,0.5577 -0.0937,0.8919 0,0.3102 0.0241,0.5938 0.0769,0.8559 0.0505,0.2595 0.1346,0.4855 0.25,0.6803 0.1154,0.1923 0.2716,0.3414 0.4688,0.4472 0.1973,0.1057 0.44,0.1587 0.7309,0.1587 0.2692,0 0.5,-0.0506 0.6996,-0.1467 0.1971,-0.0961 0.3581,-0.2356 0.4855,-0.4184 0.125,-0.1826 0.2187,-0.4038 0.2812,-0.6659 0.0602,-0.2597 0.0913,-0.5577 0.0913,-0.8895zm1.8248 -0.0722c0,0.5362 -0.0722,1.0243 -0.2115,1.4666 -0.1419,0.4399 -0.3558,0.8222 -0.642,1.1395 -0.286,0.3199 -0.6442,0.5674 -1.0769,0.7404 -0.4327,0.1732 -0.9376,0.2597 -1.5144,0.2597 -0.5579,0 -1.0435,-0.0769 -1.457,-0.2308 -0.4134,-0.1562 -0.7573,-0.3823 -1.0289,-0.6779 -0.2717,-0.2957 -0.4736,-0.6587 -0.6059,-1.0914 -0.1322,-0.4303 -0.1972,-0.9232 -0.1972,-1.4785 0,-0.5362 0.0722,-1.0243 0.2141,-1.469 0.1441,-0.4423 0.3582,-0.8222 0.6442,-1.1395 0.2886,-0.3175 0.6444,-0.5627 1.0747,-0.7357 0.4303,-0.1756 0.9328,-0.2621 1.5122,-0.2621 0.5625,0 1.0504,0.077 1.4638,0.2284 0.4136,0.1539 0.755,0.3775 1.0243,0.6731 0.2717,0.2958 0.4712,0.6612 0.6034,1.0915 0.1299,0.4327 0.1971,0.928 0.1971,1.4857z"/>
        <path fill="#0088CC" fill-rule="nonzero" d="M21.8187 11.9335c0,0.048 -0.0143,0.0889 -0.0384,0.125 -0.0265,0.0336 -0.0746,0.0625 -0.1419,0.0841 -0.0672,0.0217 -0.1611,0.036 -0.2789,0.0482 -0.1154,0.012 -0.2693,0.0191 -0.4568,0.0191 -0.1922,0 -0.3486,-0.0048 -0.4688,-0.0143 -0.1202,-0.0098 -0.2187,-0.0265 -0.2956,-0.0457 -0.0769,-0.0217 -0.1371,-0.0506 -0.1804,-0.089 -0.0408,-0.0385 -0.0793,-0.0866 -0.1106,-0.1466l-2.094 -3.3106 0 3.3226c0,0.048 -0.012,0.0889 -0.0409,0.125 -0.0287,0.0337 -0.0769,0.0649 -0.1441,0.0865 -0.0698,0.0241 -0.1587,0.0408 -0.2717,0.053 -0.113,0.012 -0.2549,0.0191 -0.4303,0.0191 -0.1732,0 -0.3175,-0.0071 -0.4279,-0.0191 -0.113,-0.0122 -0.2045,-0.0289 -0.2717,-0.053 -0.0698,-0.0216 -0.1178,-0.0528 -0.1443,-0.0865 -0.0289,-0.0361 -0.0432,-0.077 -0.0432,-0.125l0 -9.2606c0,-0.0483 0.0143,-0.0891 0.0432,-0.1276 0.0265,-0.0385 0.0745,-0.0696 0.1443,-0.0937 0.0672,-0.0265 0.1587,-0.0456 0.2717,-0.0602 0.1104,-0.0143 0.2547,-0.0215 0.4279,-0.0215 0.1754,0 0.3173,0.0072 0.4303,0.0215 0.113,0.0146 0.2019,0.0337 0.2717,0.0602 0.0672,0.0241 0.1154,0.0552 0.1441,0.0937 0.0289,0.0385 0.0409,0.0793 0.0409,0.1276l0 5.5149 1.8608 -2.5003c0.0361,-0.0576 0.0793,-0.1058 0.1275,-0.1491 0.0457,-0.0408 0.1081,-0.0745 0.185,-0.0984 0.077,-0.0241 0.1756,-0.0409 0.2886,-0.053 0.1154,-0.012 0.2621,-0.0168 0.4399,-0.0168 0.1756,0 0.3221,0.0048 0.4423,0.0168 0.1178,0.0121 0.2141,0.0289 0.2886,0.053 0.0722,0.0239 0.1226,0.0528 0.1515,0.0889 0.0263,0.0337 0.0409,0.0793 0.0409,0.1297 0,0.0698 -0.017,0.1467 -0.053,0.2261 -0.0336,0.0793 -0.0866,0.1634 -0.1587,0.2525l-1.8367 2.0842 2.1253 3.2913c0.0576,0.0937 0.0985,0.1731 0.125,0.2428 0.0241,0.0674 0.0384,0.13 0.0384,0.1852z"/>
        <path fill="#0088CC" fill-rule="nonzero" d="M68.8526 3.5167c0,0.3582 -0.0722,0.6034 -0.2189,0.7405 -0.1441,0.1369 -0.4158,0.2043 -0.8102,0.2043 -0.399,0 -0.6659,-0.065 -0.8053,-0.1971 -0.1395,-0.1324 -0.2092,-0.3679 -0.2092,-0.7118 0,-0.3557 0.0721,-0.6033 0.2164,-0.7428 0.1419,-0.1394 0.4136,-0.2091 0.8126,-0.2091 0.3943,0 0.6636,0.0674 0.8029,0.2019 0.1419,0.1347 0.2117,0.3727 0.2117,0.7141z"/>
        <path fill="#0088CC" d="M8.3325 1.1373l2.0731 1.2405c0.0364,0.0219 0.0718,0.0448 0.1064,0.0686l1.9827 1.1863c0.6645,0.3958 1.0367,1.1162 1.0373,1.8573l0.0087 0 0 2.5099 0 2.5099c0,0.8693 -0.4974,1.618 -1.2133,1.9574l-1.9239 1.1511 0.0021 0.0037 -2.0973 1.2549c-0.6737,0.4044 -1.4758,0.3714 -2.1002,-0.0144l-2.0729 -1.2405c-0.0365,-0.0219 -0.0718,-0.0448 -0.1065,-0.0686l-1.9827 -1.1863c-0.6645,-0.3958 -1.0367,-1.1162 -1.0374,-1.8573l-0.0086 0 0 -2.5099 0 -2.5099c0,-0.8693 0.4974,-1.6181 1.2133,-1.9575l1.9239 -1.151 -0.002 -0.0037 2.0972 -1.2549c0.6737,-0.4044 1.4757,-0.3714 2.1001,0.0144zm-4.898 9.9747c0.0064,-0.0133 0.0123,-0.0271 0.0173,-0.041l0.004 -0.0109 0.0006 -0.0006 2.3884 -6.7218 0.0016 -0.0057 0.0004 -0.0015c0.0049,-0.0161 0.0092,-0.0328 0.0127,-0.0495 0.0034,-0.0159 0.0058,-0.0312 0.0073,-0.0456 0.0018,-0.0176 0.0025,-0.0347 0.0021,-0.051 -0.0004,-0.0163 -0.002,-0.0326 -0.0045,-0.0484l0 0c-0.0035,-0.0215 -0.0094,-0.0421 -0.0173,-0.0615 -0.0058,-0.0139 -0.0129,-0.0275 -0.0212,-0.0407l-0.0103 -0.0142c-0.0118,-0.0163 -0.0251,-0.0313 -0.0398,-0.045l0.0001 0c-0.0291,-0.027 -0.0621,-0.0458 -0.0983,-0.0615l0 -0.0001c-0.0167,-0.0072 -0.035,-0.014 -0.0547,-0.02 -0.0161,-0.005 -0.0336,-0.0097 -0.0525,-0.014 -0.0192,-0.0043 -0.0392,-0.0082 -0.0598,-0.0115 -0.0196,-0.0031 -0.0409,-0.0059 -0.0636,-0.0081 -0.0223,-0.0023 -0.0464,-0.0041 -0.072,-0.0054 -0.0294,-0.0015 -0.0566,-0.0027 -0.0816,-0.0033 -0.0212,-0.0005 -0.047,-0.0008 -0.0786,-0.0008 -0.0234,0 -0.0419,0.0002 -0.0567,0.0005 -0.0558,0.0012 -0.1121,0.0034 -0.1677,0.009l-0.0137 0.0015c-0.0252,0.0028 -0.0506,0.0063 -0.0755,0.011l-0.0208 0.0042c-0.016,0.0032 -0.0317,0.007 -0.0469,0.0112 -0.0138,0.0037 -0.0277,0.0083 -0.0415,0.0133l-0.0198 0.0073c-0.0071,0.003 -0.0139,0.0061 -0.0205,0.0092 -0.0563,0.0273 -0.1031,0.0625 -0.1407,0.1136 -0.0162,0.0218 -0.0297,0.046 -0.0406,0.071 -0.0056,0.0128 -0.0107,0.0259 -0.015,0.0388l-0.0181 0.0545 -0.0016 -0.0005 -2.3769 6.6736 -0.0014 0.0049 -0.0006 0.002c-0.0053,0.0162 -0.0097,0.032 -0.0133,0.0474 -0.0037,0.0163 -0.0067,0.0319 -0.0085,0.0466 -0.0023,0.0178 -0.0034,0.0354 -0.0034,0.0524l0 0.0003c0.0002,0.0166 0.0016,0.0332 0.0042,0.0495l0.0009 0.0056 0 0.0007c0.0036,0.0197 0.0095,0.0386 0.0171,0.0564 0.0085,0.0197 0.0196,0.0386 0.0331,0.0566 0.0113,0.0151 0.0246,0.0296 0.0396,0.0431 0.0144,0.0129 0.0301,0.0247 0.0468,0.0351l0.0079 0.0044 0.0001 0.0002c0.0148,0.0082 0.0311,0.0161 0.0486,0.0234 0.0166,0.0069 0.0345,0.0133 0.0537,0.019l0 0.0001c0.0146,0.0044 0.0316,0.0087 0.0508,0.0128 0.021,0.0046 0.0416,0.0085 0.0614,0.0116 0.0198,0.003 0.0419,0.006 0.066,0.0085 0.0222,0.0023 0.0453,0.0043 0.0689,0.0058 0.0283,0.0017 0.0551,0.003 0.0801,0.0037 0.022,0.0007 0.0486,0.0011 0.0787,0.0011 0.0235,0 0.0429,-0.0003 0.0594,-0.0008 0.0196,-0.0005 0.042,-0.0015 0.0665,-0.0027 0.0204,-0.001 0.0414,-0.0023 0.0623,-0.004 0.0189,-0.0014 0.0357,-0.0031 0.0504,-0.0048 0.016,-0.0019 0.0312,-0.004 0.045,-0.0063 0.0154,-0.0025 0.0314,-0.0055 0.0477,-0.0088l0.0064 -0.0013 0.0008 0c0.0149,-0.0032 0.0287,-0.0065 0.0409,-0.0098l0.0002 -0.0003 0.0058 -0.0015 0.0347 -0.0115c0.0146,-0.0048 0.0279,-0.01 0.0397,-0.0153l0 -0.0001c0.0141,-0.0063 0.0269,-0.0127 0.0378,-0.019 0.0129,-0.0074 0.0252,-0.0156 0.0366,-0.0242 0.0109,-0.0083 0.0217,-0.0178 0.0321,-0.0281l0.0202 -0.0199c0.0039,-0.0043 0.0077,-0.0087 0.0115,-0.0134l0.0001 0.0001c0.0045,-0.0055 0.0089,-0.0113 0.0132,-0.0173l0.0127 -0.0204c0.0078,-0.0125 0.0149,-0.0252 0.021,-0.0379zm2.8586 0.0019c0.0066,-0.014 0.0127,-0.0284 0.0178,-0.0427l0.0041 -0.0112 0.0005 -0.0005 2.3885 -6.7218 0.0016 -0.0057 0.0004 -0.0015c0.0049,-0.0161 0.0092,-0.0328 0.0127,-0.0496 0.0033,-0.0159 0.0057,-0.0311 0.0072,-0.0455l0.0001 0c0.0017,-0.0173 0.0023,-0.0342 0.002,-0.0504 -0.0004,-0.0163 -0.0019,-0.0325 -0.0044,-0.0484l-0.0009 -0.0056 0 -0.0002c-0.0036,-0.0196 -0.0091,-0.0385 -0.0165,-0.0563 -0.0078,-0.0191 -0.0181,-0.0376 -0.0309,-0.0552 -0.0111,-0.0152 -0.0239,-0.0296 -0.0385,-0.0428 -0.0152,-0.0139 -0.0322,-0.0266 -0.0508,-0.0381l-0.0018 -0.0011 -0.0012 -0.0009c-0.0139,-0.0082 -0.0293,-0.0159 -0.046,-0.0232 -0.0172,-0.0075 -0.0357,-0.0143 -0.0549,-0.0203 -0.0161,-0.0049 -0.0338,-0.0097 -0.0527,-0.0139 -0.0191,-0.0043 -0.0391,-0.0083 -0.0596,-0.0115 -0.0196,-0.0031 -0.0409,-0.0059 -0.0636,-0.0081 -0.0224,-0.0023 -0.0464,-0.0041 -0.072,-0.0054 -0.0294,-0.0015 -0.0566,-0.0027 -0.0816,-0.0033 -0.0211,-0.0005 -0.0471,-0.0008 -0.0785,-0.0008 -0.0235,0 -0.0419,0.0002 -0.0568,0.0005 -0.0192,0.0005 -0.0424,0.0013 -0.069,0.0024 -0.02,0.0008 -0.0407,0.002 -0.0619,0.0035l-0.0002 0c-0.0133,0.0009 -0.0257,0.002 -0.0372,0.0031l-0.0012 0.0001 -0.0005 0.0001 -0.0114 0.0013c-0.0181,0.002 -0.0343,0.0042 -0.0484,0.0064l-0.0147 0.0024 -0.0332 0.0066c-0.0187,0.0038 -0.0344,0.0075 -0.0474,0.011l0 0.0001c-0.0138,0.0038 -0.0278,0.0083 -0.0417,0.0135l-0.0262 0.0097 -0.0144 0.0066c-0.0132,0.0064 -0.0264,0.0136 -0.039,0.0213 -0.0137,0.0084 -0.0269,0.0176 -0.0393,0.0276 -0.0062,0.0051 -0.0123,0.0104 -0.0182,0.0159l-0.0145 0.0154c-0.0106,0.0113 -0.0205,0.023 -0.0295,0.035l-0.0001 -0.0001c-0.0053,0.0069 -0.0103,0.0143 -0.015,0.0219l0 0.0003 -0.0075 0.0129c-0.0061,0.0108 -0.0119,0.0224 -0.0172,0.0345 -0.0059,0.0133 -0.0109,0.0262 -0.015,0.0386l-0.0187 0.0563 -0.0015 -0.0006 -2.377 6.6739 -0.0002 0 -0.0013 0.0039 0.0002 0.0001c-0.0052,0.0158 -0.0096,0.0314 -0.0131,0.0468 -0.0037,0.0162 -0.0067,0.0321 -0.0087,0.0474l-0.0012 0.0095c-0.0016,0.0147 -0.0024,0.0291 -0.0023,0.0431l0 0.0003c0.0001,0.0167 0.0015,0.0334 0.0042,0.05l0.0009 0.0055 0 0.0008c0.0036,0.0197 0.0095,0.0386 0.0171,0.0564 0.0085,0.0197 0.0196,0.0386 0.0331,0.0566 0.0113,0.0151 0.0246,0.0296 0.0396,0.0431 0.0144,0.0129 0.0301,0.0247 0.0468,0.0351l0.0065 0.0033 0.0024 0.0013c0.0159,0.0088 0.0324,0.0168 0.0491,0.0239l0 -0.0002c0.0167,0.007 0.0342,0.0134 0.0521,0.0187 0.0146,0.0044 0.0317,0.0088 0.051,0.0129 0.021,0.0046 0.0416,0.0085 0.0614,0.0116 0.0198,0.003 0.0419,0.006 0.0659,0.0085 0.0223,0.0023 0.0454,0.0043 0.069,0.0058 0.0283,0.0017 0.0551,0.003 0.0801,0.0037 0.022,0.0007 0.0485,0.0011 0.0787,0.0011 0.0234,0 0.0429,-0.0003 0.0594,-0.0008 0.0196,-0.0005 0.0419,-0.0015 0.0665,-0.0027 0.0204,-0.001 0.0413,-0.0023 0.0622,-0.004 0.0192,-0.0015 0.0361,-0.0031 0.0504,-0.0048 0.0162,-0.0019 0.0313,-0.004 0.045,-0.0063 0.0154,-0.0025 0.0314,-0.0055 0.0478,-0.0088l0.0063 -0.0013 0.0009 0c0.0149,-0.0032 0.0287,-0.0065 0.0409,-0.0098l0.0002 -0.0003 0.004 -0.001 0.0367 -0.012c0.0149,-0.0049 0.0287,-0.0101 0.0411,-0.0155l0.0146 -0.0068 0.0216 -0.0123c0.0146,-0.0084 0.0279,-0.0172 0.0398,-0.0263 0.0123,-0.0093 0.0235,-0.0193 0.0335,-0.0294l0.0009 -0.0009c0.0098,-0.0096 0.0193,-0.02 0.028,-0.0308l-0.0001 0c0.0089,-0.0112 0.0173,-0.023 0.0249,-0.0352l0.0001 0c0.0068,-0.0108 0.0134,-0.0231 0.0197,-0.0364zm6.1159 -1.4371c0.0005,-0.0184 0.0007,-0.0415 0.0007,-0.0684 0,-0.0269 -0.0001,-0.051 -0.0005,-0.0695l0 -0.0001 -0.0008 -0.0365 0 -0.0003 -0.0001 -0.0043 -0.0013 -0.0453c-0.0008,-0.0262 -0.0018,-0.0505 -0.0029,-0.0729 -0.0008,-0.0184 -0.002,-0.0359 -0.0033,-0.0517 -0.0015,-0.0185 -0.0034,-0.0355 -0.0055,-0.051 -0.0023,-0.0175 -0.0052,-0.0355 -0.0085,-0.0537 -0.0033,-0.0176 -0.0072,-0.0352 -0.0115,-0.0525l-0.0042 -0.0155 -0.009 -0.0268c-0.0056,-0.0167 -0.0119,-0.032 -0.0186,-0.0459 -0.0044,-0.0093 -0.0096,-0.0186 -0.0152,-0.0278l-0.0073 -0.011c-0.0101,-0.0151 -0.0213,-0.0292 -0.0332,-0.0422 -0.0112,-0.0121 -0.0232,-0.0232 -0.0359,-0.0332l-0.0006 -0.0004 -0.0024 -0.0015 -0.0016 -0.0011c-0.0101,-0.0075 -0.0206,-0.0147 -0.031,-0.0214l-0.0047 -0.003 -0.0267 -0.015c-0.015,-0.0085 -0.0262,-0.0146 -0.0339,-0.0187l-0.0001 0.0001c-0.012,-0.0062 -0.0218,-0.0112 -0.029,-0.0147l-0.0009 -0.0004 -0.0018 -0.001 -0.0001 0.0001 -1.8291 -0.8476 -0.1087 -0.0504 0.1085 -0.0509 1.8737 -0.8786 0.0039 -0.0019c0.011,-0.0055 0.022,-0.0114 0.0328,-0.0176 0.0099,-0.0056 0.0189,-0.011 0.027,-0.0163 0.0077,-0.0049 0.0157,-0.0104 0.0239,-0.0164 0.0087,-0.0063 0.0158,-0.0116 0.0209,-0.0158l0.0085 -0.007c0.0112,-0.0096 0.0213,-0.02 0.0304,-0.0312l0 -0.0002c0.0117,-0.0142 0.022,-0.0299 0.0309,-0.0465l0.0001 0.0001c0.0057,-0.0108 0.0115,-0.0232 0.017,-0.0372l0.0002 0c0.0051,-0.013 0.0101,-0.0274 0.0146,-0.0429l0.0013 -0.0044 0.0007 -0.0013c0.0028,-0.0104 0.0056,-0.0226 0.0084,-0.0363l0.0002 0c0.0029,-0.0144 0.0057,-0.0308 0.0082,-0.0491 0.0022,-0.0159 0.0042,-0.0317 0.0056,-0.0469 0.0014,-0.0149 0.0028,-0.0322 0.0041,-0.052 0.001,-0.0163 0.0021,-0.0348 0.0028,-0.0547 0.0008,-0.0213 0.0017,-0.045 0.0023,-0.0698l0.0019 -0.0848c0.0004,-0.017 0.0005,-0.0382 0.0005,-0.061 0,-0.0451 -0.0012,-0.0857 -0.0034,-0.1219 -0.0023,-0.0367 -0.0059,-0.0709 -0.0106,-0.1022 -0.0058,-0.0384 -0.0137,-0.073 -0.0236,-0.1035l0 -0.0002c-0.0092,-0.0287 -0.0206,-0.0542 -0.0337,-0.0762l-0.0004 -0.0005 -0.0024 -0.0035c-0.0226,-0.0357 -0.0493,-0.0636 -0.08,-0.0835 -0.0306,-0.0198 -0.066,-0.0323 -0.1059,-0.0375l0 -0.0001c-0.0297,-0.0038 -0.0606,-0.0027 -0.0923,0.0032 -0.0323,0.006 -0.0659,0.0172 -0.1006,0.0337l0 -0.0001 -0.0023 0.0012 -0.0003 0.0002 -3.0695 1.5225 0.0001 0.0001 -0.0087 0.0042 -0.0045 0.0029 0 0.0001c-0.0102,0.0062 -0.0202,0.0129 -0.0292,0.0198 -0.009,0.0069 -0.0179,0.0144 -0.0262,0.0222 -0.0075,0.0071 -0.0149,0.0147 -0.0217,0.0227 -0.0069,0.008 -0.0137,0.0166 -0.02,0.0257l-0.0004 0.0006 0 0.0001 -0.0007 0.001 -0.0006 0.0007c-0.0068,0.0094 -0.0133,0.0198 -0.0197,0.0312l-0.0002 0.0002c-0.0063,0.0114 -0.0122,0.0234 -0.0173,0.0355 -0.004,0.0096 -0.0081,0.0205 -0.0119,0.0325 -0.0038,0.0116 -0.0073,0.024 -0.0106,0.0372l-0.0062 0.0253 -0.0011 0.0054 0 0.0003c-0.0029,0.015 -0.0053,0.0284 -0.0072,0.04 -0.002,0.0129 -0.004,0.0263 -0.0058,0.0399 -0.0016,0.0121 -0.0032,0.0254 -0.0047,0.04 -0.0012,0.0122 -0.0026,0.0276 -0.0039,0.046l-0.0001 0c-0.0011,0.0174 -0.0022,0.034 -0.0028,0.0492 -0.0011,0.0233 -0.0018,0.0431 -0.0022,0.0594l0 0.0002c-0.0004,0.0125 -0.0006,0.0276 -0.0006,0.0456 0,0.0375 0.0006,0.0703 0.0017,0.0983l0 0.0003c0.0011,0.0294 0.0031,0.0599 0.0056,0.0904 0.0026,0.0305 0.0058,0.058 0.0095,0.0819 0.004,0.0258 0.0089,0.0506 0.0145,0.074l0.0005 0.0019 0.0006 0.0032c0.0085,0.0323 0.0194,0.0643 0.0338,0.0944 0.0075,0.0161 0.017,0.0314 0.0268,0.0461 0.0124,0.0184 0.026,0.0351 0.0407,0.0499 0.0173,0.0173 0.0364,0.0322 0.0571,0.0444l-0.0001 0.0002 0.0105 0.0059 0.0001 -0.0002 3.07 1.5288 0.0016 0.0006 0.0015 0.0005 0.0046 0.0021c0.0121,0.0057 0.0255,0.0115 0.04,0.0174l-0.0001 0c0.0124,0.005 0.0242,0.0093 0.0352,0.0129 0.0131,0.0042 0.0261,0.0077 0.0388,0.0104l0.0002 0c0.0133,0.0028 0.0256,0.0048 0.0366,0.0058l0.0007 0.0001 0.0017 0.0001 0.0029 0.0003c0.0209,0.0018 0.041,0.0012 0.0605,-0.0021 0.0206,-0.0034 0.041,-0.0099 0.0608,-0.0195 0.0183,-0.0089 0.0352,-0.0198 0.0506,-0.0329l0.0001 0.0002c0.0102,-0.0087 0.02,-0.0187 0.0294,-0.0301l0.0121 -0.0168c0.0096,-0.0135 0.0182,-0.0279 0.0255,-0.0429 0.008,-0.0164 0.015,-0.034 0.0208,-0.0523l0.0074 -0.0235c0.0018,-0.0067 0.0035,-0.0138 0.0051,-0.0212 0.0034,-0.0157 0.0064,-0.032 0.009,-0.0489l0 -0.0006 0.0007 -0.0047c0.0024,-0.017 0.0045,-0.0346 0.0061,-0.0523 0.0016,-0.0181 0.0031,-0.0392 0.0044,-0.0631 0.0014,-0.026 0.0024,-0.0501 0.003,-0.0723z"/>
    </g>
</svg>
