<?xml version="1.0"?>
<svg width="13" height="15" xmlns="http://www.w3.org/2000/svg" xmlns:svg="http://www.w3.org/2000/svg" clip-rule="evenodd">
  <g class="layer">
    <rect fill="#ffffff" height="8.373685" id="svg_9" stroke="#000000" stroke-dasharray="null" stroke-linecap="null" stroke-linejoin="null" stroke-opacity="0" stroke-width="0" width="10.620526" x="1.189737" y="3.313158"/>
    <path d="m7.56215,0.678325l2.0731,1.2405c0.0364,0.0219 0.0718,0.0448 0.1064,0.0686l1.9827,1.1863c0.6645,0.3958 1.0367,1.1162 1.0373,1.8573l0.0087,0l0,2.5099l0,2.5099c0,0.8693 -0.4974,1.618 -1.2133,1.9574l-1.9239,1.1511l0.0021,0.0037l-2.0973,1.2549c-0.6737,0.4044 -1.4758,0.3714 -2.1002,-0.0144l-2.0729,-1.2405c-0.0365,-0.0219 -0.0718,-0.0448 -0.1065,-0.0686l-1.9827,-1.1863c-0.6645,-0.3958 -1.0367,-1.1162 -1.0374,-1.8573l-0.0086,0l0,-2.5099l0,-2.5099c0,-0.8693 0.4974,-1.6181 1.2133,-1.9575l1.9239,-1.151l-0.002,-0.0037l2.0972,-1.2549c0.6737,-0.4044 1.4757,-0.3714 2.1001,0.0144zm-4.898,9.9747c0.0064,-0.0133 0.0123,-0.0271 0.0173,-0.041l0.004,-0.0109l0.0006,-0.0006l2.3884,-6.7218l0.0016,-0.0057l0.0004,-0.0015c0.0049,-0.0161 0.0092,-0.0328 0.0127,-0.0495c0.0034,-0.0159 0.0058,-0.0312 0.0073,-0.0456c0.0018,-0.0176 0.0025,-0.0347 0.0021,-0.051c-0.0004,-0.0163 -0.002,-0.0326 -0.0045,-0.0484l0,0c-0.0035,-0.0215 -0.0094,-0.0421 -0.0173,-0.0615c-0.0058,-0.0139 -0.0129,-0.0275 -0.0212,-0.0407l-0.0103,-0.0142c-0.0118,-0.0163 -0.0251,-0.0313 -0.0398,-0.045l0.0001,0c-0.0291,-0.027 -0.0621,-0.0458 -0.0983,-0.0615l0,-0.0001c-0.0167,-0.0072 -0.035,-0.014 -0.0547,-0.02c-0.0161,-0.005 -0.0336,-0.0097 -0.0525,-0.014c-0.0192,-0.0043 -0.0392,-0.0082 -0.0598,-0.0115c-0.0196,-0.0031 -0.0409,-0.0059 -0.0636,-0.0081c-0.0223,-0.0023 -0.0464,-0.0041 -0.072,-0.0054c-0.0294,-0.0015 -0.0566,-0.0027 -0.0816,-0.0033c-0.0212,-0.0005 -0.047,-0.0008 -0.0786,-0.0008c-0.0234,0 -0.0419,0.0002 -0.0567,0.0005c-0.0558,0.0012 -0.1121,0.0034 -0.1677,0.009l-0.0137,0.0015c-0.0252,0.0028 -0.0506,0.0063 -0.0755,0.011l-0.0208,0.0042c-0.016,0.0032 -0.0317,0.007 -0.0469,0.0112c-0.0138,0.0037 -0.0277,0.0083 -0.0415,0.0133l-0.0198,0.0073c-0.0071,0.003 -0.0139,0.0061 -0.0205,0.0092c-0.0563,0.0273 -0.1031,0.0625 -0.1407,0.1136c-0.0162,0.0218 -0.0297,0.046 -0.0406,0.071c-0.0056,0.0128 -0.0107,0.0259 -0.015,0.0388l-0.0181,0.0545l-0.0016,-0.0005l-2.3769,6.6736l-0.0014,0.0049l-0.0006,0.002c-0.0053,0.0162 -0.0097,0.032 -0.0133,0.0474c-0.0037,0.0163 -0.0067,0.0319 -0.0085,0.0466c-0.0023,0.0178 -0.0034,0.0354 -0.0034,0.0524l0,0.0003c0.0002,0.0166 0.0016,0.0332 0.0042,0.0495l0.0009,0.0056l0,0.0007c0.0036,0.0197 0.0095,0.0386 0.0171,0.0564c0.0085,0.0197 0.0196,0.0386 0.0331,0.0566c0.0113,0.0151 0.0246,0.0296 0.0396,0.0431c0.0144,0.0129 0.0301,0.0247 0.0468,0.0351l0.0079,0.0044l0.0001,0.0002c0.0148,0.0082 0.0311,0.0161 0.0486,0.0234c0.0166,0.0069 0.0345,0.0133 0.0537,0.019l0,0.0001c0.0146,0.0044 0.0316,0.0087 0.0508,0.0128c0.021,0.0046 0.0416,0.0085 0.0614,0.0116c0.0198,0.003 0.0419,0.006 0.066,0.0085c0.0222,0.0023 0.0453,0.0043 0.0689,0.0058c0.0283,0.0017 0.0551,0.003 0.0801,0.0037c0.022,0.0007 0.0486,0.0011 0.0787,0.0011c0.0235,0 0.0429,-0.0003 0.0594,-0.0008c0.0196,-0.0005 0.042,-0.0015 0.0665,-0.0027c0.0204,-0.001 0.0414,-0.0023 0.0623,-0.004c0.0189,-0.0014 0.0357,-0.0031 0.0504,-0.0048c0.016,-0.0019 0.0312,-0.004 0.045,-0.0063c0.0154,-0.0025 0.0314,-0.0055 0.0477,-0.0088l0.0064,-0.0013l0.0008,0c0.0149,-0.0032 0.0287,-0.0065 0.0409,-0.0098l0.0002,-0.0003l0.0058,-0.0015l0.0347,-0.0115c0.0146,-0.0048 0.0279,-0.01 0.0397,-0.0153l0,-0.0001c0.0141,-0.0063 0.0269,-0.0127 0.0378,-0.019c0.0129,-0.0074 0.0252,-0.0156 0.0366,-0.0242c0.0109,-0.0083 0.0217,-0.0178 0.0321,-0.0281l0.0202,-0.0199c0.0039,-0.0043 0.0077,-0.0087 0.0115,-0.0134l0.0001,0.0001c0.0045,-0.0055 0.0089,-0.0113 0.0132,-0.0173l0.0127,-0.0204c0.0078,-0.0125 0.0149,-0.0252 0.021,-0.0379zm2.8586,0.0019c0.0066,-0.014 0.0127,-0.0284 0.0178,-0.0427l0.0041,-0.0112l0.0005,-0.0005l2.3885,-6.7218l0.0016,-0.0057l0.0004,-0.0015c0.0049,-0.0161 0.0092,-0.0328 0.0127,-0.0496c0.0033,-0.0159 0.0057,-0.0311 0.0072,-0.0455l0.0001,0c0.0017,-0.0173 0.0023,-0.0342 0.002,-0.0504c-0.0004,-0.0163 -0.0019,-0.0325 -0.0044,-0.0484l-0.0009,-0.0056l0,-0.0002c-0.0036,-0.0196 -0.0091,-0.0385 -0.0165,-0.0563c-0.0078,-0.0191 -0.0181,-0.0376 -0.0309,-0.0552c-0.0111,-0.0152 -0.0239,-0.0296 -0.0385,-0.0428c-0.0152,-0.0139 -0.0322,-0.0266 -0.0508,-0.0381l-0.0018,-0.0011l-0.0012,-0.0009c-0.0139,-0.0082 -0.0293,-0.0159 -0.046,-0.0232c-0.0172,-0.0075 -0.0357,-0.0143 -0.0549,-0.0203c-0.0161,-0.0049 -0.0338,-0.0097 -0.0527,-0.0139c-0.0191,-0.0043 -0.0391,-0.0083 -0.0596,-0.0115c-0.0196,-0.0031 -0.0409,-0.0059 -0.0636,-0.0081c-0.0224,-0.0023 -0.0464,-0.0041 -0.072,-0.0054c-0.0294,-0.0015 -0.0566,-0.0027 -0.0816,-0.0033c-0.0211,-0.0005 -0.0471,-0.0008 -0.0785,-0.0008c-0.0235,0 -0.0419,0.0002 -0.0568,0.0005c-0.0192,0.0005 -0.0424,0.0013 -0.069,0.0024c-0.02,0.0008 -0.0407,0.002 -0.0619,0.0035l-0.0002,0c-0.0133,0.0009 -0.0257,0.002 -0.0372,0.0031l-0.0012,0.0001l-0.0005,0.0001l-0.0114,0.0013c-0.0181,0.002 -0.0343,0.0042 -0.0484,0.0064l-0.0147,0.0024l-0.0332,0.0066c-0.0187,0.0038 -0.0344,0.0075 -0.0474,0.011l0,0.0001c-0.0138,0.0038 -0.0278,0.0083 -0.0417,0.0135l-0.0262,0.0097l-0.0144,0.0066c-0.0132,0.0064 -0.0264,0.0136 -0.039,0.0213c-0.0137,0.0084 -0.0269,0.0176 -0.0393,0.0276c-0.0062,0.0051 -0.0123,0.0104 -0.0182,0.0159l-0.0145,0.0154c-0.0106,0.0113 -0.0205,0.023 -0.0295,0.035l-0.0001,-0.0001c-0.0053,0.0069 -0.0103,0.0143 -0.015,0.0219l0,0.0003l-0.0075,0.0129c-0.0061,0.0108 -0.0119,0.0224 -0.0172,0.0345c-0.0059,0.0133 -0.0109,0.0262 -0.015,0.0386l-0.0187,0.0563l-0.0015,-0.0006l-2.377,6.6739l-0.0002,0l-0.0013,0.0039l0.0002,0.0001c-0.0052,0.0158 -0.0096,0.0314 -0.0131,0.0468c-0.0037,0.0162 -0.0067,0.0321 -0.0087,0.0474l-0.0012,0.0095c-0.0016,0.0147 -0.0024,0.0291 -0.0023,0.0431l0,0.0003c0.0001,0.0167 0.0015,0.0334 0.0042,0.05l0.0009,0.0055l0,0.0008c0.0036,0.0197 0.0095,0.0386 0.0171,0.0564c0.0085,0.0197 0.0196,0.0386 0.0331,0.0566c0.0113,0.0151 0.0246,0.0296 0.0396,0.0431c0.0144,0.0129 0.0301,0.0247 0.0468,0.0351l0.0065,0.0033l0.0024,0.0013c0.0159,0.0088 0.0324,0.0168 0.0491,0.0239l0,-0.0002c0.0167,0.007 0.0342,0.0134 0.0521,0.0187c0.0146,0.0044 0.0317,0.0088 0.051,0.0129c0.021,0.0046 0.0416,0.0085 0.0614,0.0116c0.0198,0.003 0.0419,0.006 0.0659,0.0085c0.0223,0.0023 0.0454,0.0043 0.069,0.0058c0.0283,0.0017 0.0551,0.003 0.0801,0.0037c0.022,0.0007 0.0485,0.0011 0.0787,0.0011c0.0234,0 0.0429,-0.0003 0.0594,-0.0008c0.0196,-0.0005 0.0419,-0.0015 0.0665,-0.0027c0.0204,-0.001 0.0413,-0.0023 0.0622,-0.004c0.0192,-0.0015 0.0361,-0.0031 0.0504,-0.0048c0.0162,-0.0019 0.0313,-0.004 0.045,-0.0063c0.0154,-0.0025 0.0314,-0.0055 0.0478,-0.0088l0.0063,-0.0013l0.0009,0c0.0149,-0.0032 0.0287,-0.0065 0.0409,-0.0098l0.0002,-0.0003l0.004,-0.001l0.0367,-0.012c0.0149,-0.0049 0.0287,-0.0101 0.0411,-0.0155l0.0146,-0.0068l0.0216,-0.0123c0.0146,-0.0084 0.0279,-0.0172 0.0398,-0.0263c0.0123,-0.0093 0.0235,-0.0193 0.0335,-0.0294l0.0009,-0.0009c0.0098,-0.0096 0.0193,-0.02 0.028,-0.0308l-0.0001,0c0.0089,-0.0112 0.0173,-0.023 0.0249,-0.0352l0.0001,0c0.0068,-0.0108 0.0134,-0.0231 0.0197,-0.0364zm6.1159,-1.4371c0.0005,-0.0184 0.0007,-0.0415 0.0007,-0.0684c0,-0.0269 -0.0001,-0.051 -0.0005,-0.0695l0,-0.0001l-0.0008,-0.0365l0,-0.0003l-0.0001,-0.0043l-0.0013,-0.0453c-0.0008,-0.0262 -0.0018,-0.0505 -0.0029,-0.0729c-0.0008,-0.0184 -0.002,-0.0359 -0.0033,-0.0517c-0.0015,-0.0185 -0.0034,-0.0355 -0.0055,-0.051c-0.0023,-0.0175 -0.0052,-0.0355 -0.0085,-0.0537c-0.0033,-0.0176 -0.0072,-0.0352 -0.0115,-0.0525l-0.0042,-0.0155l-0.009,-0.0268c-0.0056,-0.0167 -0.0119,-0.032 -0.0186,-0.0459c-0.0044,-0.0093 -0.0096,-0.0186 -0.0152,-0.0278l-0.0073,-0.011c-0.0101,-0.0151 -0.0213,-0.0292 -0.0332,-0.0422c-0.0112,-0.0121 -0.0232,-0.0232 -0.0359,-0.0332l-0.0006,-0.0004l-0.0024,-0.0015l-0.0016,-0.0011c-0.0101,-0.0075 -0.0206,-0.0147 -0.031,-0.0214l-0.0047,-0.003l-0.0267,-0.015c-0.015,-0.0085 -0.0262,-0.0146 -0.0339,-0.0187l-0.0001,0.0001c-0.012,-0.0062 -0.0218,-0.0112 -0.029,-0.0147l-0.0009,-0.0004l-0.0018,-0.001l-0.0001,0.0001l-1.8291,-0.8476l-0.1087,-0.0504l0.1085,-0.0509l1.8737,-0.8786l0.0039,-0.0019c0.011,-0.0055 0.022,-0.0114 0.0328,-0.0176c0.0099,-0.0056 0.0189,-0.011 0.027,-0.0163c0.0077,-0.0049 0.0157,-0.0104 0.0239,-0.0164c0.0087,-0.0063 0.0158,-0.0116 0.0209,-0.0158l0.0085,-0.007c0.0112,-0.0096 0.0213,-0.02 0.0304,-0.0312l0,-0.0002c0.0117,-0.0142 0.022,-0.0299 0.0309,-0.0465l0.0001,0.0001c0.0057,-0.0108 0.0115,-0.0232 0.017,-0.0372l0.0002,0c0.0051,-0.013 0.0101,-0.0274 0.0146,-0.0429l0.0013,-0.0044l0.0007,-0.0013c0.0028,-0.0104 0.0056,-0.0226 0.0084,-0.0363l0.0002,0c0.0029,-0.0144 0.0057,-0.0308 0.0082,-0.0491c0.0022,-0.0159 0.0042,-0.0317 0.0056,-0.0469c0.0014,-0.0149 0.0028,-0.0322 0.0041,-0.052c0.001,-0.0163 0.0021,-0.0348 0.0028,-0.0547c0.0008,-0.0213 0.0017,-0.045 0.0023,-0.0698l0.0019,-0.0848c0.0004,-0.017 0.0005,-0.0382 0.0005,-0.061c0,-0.0451 -0.0012,-0.0857 -0.0034,-0.1219c-0.0023,-0.0367 -0.0059,-0.0709 -0.0106,-0.1022c-0.0058,-0.0384 -0.0137,-0.073 -0.0236,-0.1035l0,-0.0002c-0.0092,-0.0287 -0.0206,-0.0542 -0.0337,-0.0762l-0.0004,-0.0005l-0.0024,-0.0035c-0.0226,-0.0357 -0.0493,-0.0636 -0.08,-0.0835c-0.0306,-0.0198 -0.066,-0.0323 -0.1059,-0.0375l0,-0.0001c-0.0297,-0.0038 -0.0606,-0.0027 -0.0923,0.0032c-0.0323,0.006 -0.0659,0.0172 -0.1006,0.0337l0,-0.0001l-0.0023,0.0012l-0.0003,0.0002l-3.0695,1.5225l0.0001,0.0001l-0.0087,0.0042l-0.0045,0.0029l0,0.0001c-0.0102,0.0062 -0.0202,0.0129 -0.0292,0.0198c-0.009,0.0069 -0.0179,0.0144 -0.0262,0.0222c-0.0075,0.0071 -0.0149,0.0147 -0.0217,0.0227c-0.0069,0.008 -0.0137,0.0166 -0.02,0.0257l-0.0004,0.0006l0,0.0001l-0.0007,0.001l-0.0006,0.0007c-0.0068,0.0094 -0.0133,0.0198 -0.0197,0.0312l-0.0002,0.0002c-0.0063,0.0114 -0.0122,0.0234 -0.0173,0.0355c-0.004,0.0096 -0.0081,0.0205 -0.0119,0.0325c-0.0038,0.0116 -0.0073,0.024 -0.0106,0.0372l-0.0062,0.0253l-0.0011,0.0054l0,0.0003c-0.0029,0.015 -0.0053,0.0284 -0.0072,0.04c-0.002,0.0129 -0.004,0.0263 -0.0058,0.0399c-0.0016,0.0121 -0.0032,0.0254 -0.0047,0.04c-0.0012,0.0122 -0.0026,0.0276 -0.0039,0.046l-0.0001,0c-0.0011,0.0174 -0.0022,0.034 -0.0028,0.0492c-0.0011,0.0233 -0.0018,0.0431 -0.0022,0.0594l0,0.0002c-0.0004,0.0125 -0.0006,0.0276 -0.0006,0.0456c0,0.0375 0.0006,0.0703 0.0017,0.0983l0,0.0003c0.0011,0.0294 0.0031,0.0599 0.0056,0.0904c0.0026,0.0305 0.0058,0.058 0.0095,0.0819c0.004,0.0258 0.0089,0.0506 0.0145,0.074l0.0005,0.0019l0.0006,0.0032c0.0085,0.0323 0.0194,0.0643 0.0338,0.0944c0.0075,0.0161 0.017,0.0314 0.0268,0.0461c0.0124,0.0184 0.026,0.0351 0.0407,0.0499c0.0173,0.0173 0.0364,0.0322 0.0571,0.0444l-0.0001,0.0002l0.0105,0.0059l0.0001,-0.0002l3.07,1.5288l0.0016,0.0006l0.0015,0.0005l0.0046,0.0021c0.0121,0.0057 0.0255,0.0115 0.04,0.0174l-0.0001,0c0.0124,0.005 0.0242,0.0093 0.0352,0.0129c0.0131,0.0042 0.0261,0.0077 0.0388,0.0104l0.0002,0c0.0133,0.0028 0.0256,0.0048 0.0366,0.0058l0.0007,0.0001l0.0017,0.0001l0.0029,0.0003c0.0209,0.0018 0.041,0.0012 0.0605,-0.0021c0.0206,-0.0034 0.041,-0.0099 0.0608,-0.0195c0.0183,-0.0089 0.0352,-0.0198 0.0506,-0.0329l0.0001,0.0002c0.0102,-0.0087 0.02,-0.0187 0.0294,-0.0301l0.0121,-0.0168c0.0096,-0.0135 0.0182,-0.0279 0.0255,-0.0429c0.008,-0.0164 0.015,-0.034 0.0208,-0.0523l0.0074,-0.0235c0.0018,-0.0067 0.0035,-0.0138 0.0051,-0.0212c0.0034,-0.0157 0.0064,-0.032 0.009,-0.0489l0,-0.0006l0.0007,-0.0047c0.0024,-0.017 0.0045,-0.0346 0.0061,-0.0523c0.0016,-0.0181 0.0031,-0.0392 0.0044,-0.0631c0.0014,-0.026 0.0024,-0.0501 0.003,-0.0723z" fill="#0088CC"/>
  </g>
</svg>